HIERARCHY
ROOT Model_Hips
{
	OFFSET 0.000000 96.915077 0.000000
	CHANNELS 6 Xposition Yposition Zposition Xrotation Yrotation Zrotation
	JOINT Model_Spine
	{
		OFFSET 0.000000 11.137703 -1.289900
		CHANNELS 3 Xrotation Yrotation Zrotation
		JOINT Model_Spine1
		{
			OFFSET 0.000000 12.993942 -1.504922
			CHANNELS 3 Xrotation Yrotation Zrotation
			JOINT Model_Spine2
			{
				OFFSET 0.000000 14.850220 -1.719911
				CHANNELS 3 Xrotation Yrotation Zrotation
				JOINT Model_Neck
				{
					OFFSET 0.000000 16.706543 -1.934903
					CHANNELS 3 Xrotation Yrotation Zrotation
					JOINT Model_Head
					{
						OFFSET 0.000000 10.471298 2.002100
						CHANNELS 3 Xrotation Yrotation Zrotation
						JOINT Model_HeadTop_End
						{
							OFFSET 0.000000 20.842606 3.985100
							CHANNELS 3 Xrotation Yrotation Zrotation
							End Site
							{
								OFFSET 0.000000 21.220154 0.000000
							}
						}
					}
				}
				JOINT Model_LeftShoulder
				{
					OFFSET 7.008500 14.768600 -1.919946
					CHANNELS 3 Xrotation Yrotation Zrotation
					JOINT Model_LeftArm
					{
						OFFSET 14.126271 -3.718048 0.029937
						CHANNELS 3 Xrotation Yrotation Zrotation
						JOINT Model_LeftForeArm
						{
							OFFSET 28.282801 0.000000 0.000000
							CHANNELS 3 Xrotation Yrotation Zrotation
							JOINT Model_LeftHand
							{
								OFFSET 26.204689 0.000000 0.000000
								CHANNELS 3 Xrotation Yrotation Zrotation
								End Site
								{
									OFFSET 26.204704 0.000000 0.000000
								}
							}
						}
					}
				}
				JOINT Model_RightShoulder
				{
					OFFSET -7.008500 14.768555 -1.949840
					CHANNELS 3 Xrotation Yrotation Zrotation
					JOINT Model_RightArm
					{
						OFFSET -14.126281 -3.718018 -0.029932
						CHANNELS 3 Xrotation Yrotation Zrotation
						JOINT Model_RightForeArm
						{
							OFFSET -28.283798 0.000000 -0.000001
							CHANNELS 3 Xrotation Yrotation Zrotation
							JOINT Model_RightHand
							{
								OFFSET -26.204193 0.000000 -0.000001
								CHANNELS 3 Xrotation Yrotation Zrotation
								End Site
								{
									OFFSET -26.204208 0.000000 -0.000001
								}
							}
						}
					}
				}
			}
		}
	}
	JOINT Model_LeftUpLeg
	{
		OFFSET 8.327700 -6.193199 -0.402800
		CHANNELS 3 Xrotation Yrotation Zrotation
		JOINT Model_LeftLeg
		{
			OFFSET 0.735802 -42.108742 -0.610721
			CHANNELS 3 Xrotation Yrotation Zrotation
			JOINT Model_LeftFoot
			{
				OFFSET -0.735806 -36.833748 -0.172876
				CHANNELS 3 Xrotation Yrotation Zrotation
				JOINT Model_LeftToeBase
				{
					OFFSET -0.565857 -11.977769 16.297714
					CHANNELS 3 Xrotation Yrotation Zrotation
					JOINT Model_LeftToe_End
					{
						OFFSET -0.111712 -0.312793 7.857784
						CHANNELS 3 Xrotation Yrotation Zrotation
						End Site
						{
							OFFSET -0.111712 -0.312793 7.857784
						}
					}
				}
			}
		}
	}
	JOINT Model_RightUpLeg
	{
		OFFSET -8.327700 -6.193199 -0.516500
		CHANNELS 3 Xrotation Yrotation Zrotation
		JOINT Model_RightLeg
		{
			OFFSET -0.735785 -42.108738 -0.434061
			CHANNELS 3 Xrotation Yrotation Zrotation
			JOINT Model_RightFoot
			{
				OFFSET 0.735776 -36.833748 -0.021630
				CHANNELS 3 Xrotation Yrotation Zrotation
				JOINT Model_RightToeBase
				{
					OFFSET 0.565817 -11.977745 15.903093
					CHANNELS 3 Xrotation Yrotation Zrotation
					JOINT Model_RightToe_End
					{
						OFFSET 0.111702 -0.312791 7.811342
						CHANNELS 3 Xrotation Yrotation Zrotation
						End Site
						{
							OFFSET 0.111702 -0.312791 7.811342
						}
					}
				}
			}
		}
	}
}
MOTION
Frames: 6
Frame Time: 0.016667
-10.468029 64.055016 61.201149 11.149328 66.564906 -19.771775 8.246708 -1.194351 4.519788 16.576227 -2.072903 9.034208 16.576242 -2.072881 9.034208 -1.643844 5.319866 -0.557882 -1.643847 5.319901 -0.557880 -0.000003 0.000000 0.000002 2.721901 -0.550762 -20.129886 -19.466953 10.735516 -25.910169 -9.925103 -65.561347 -13.681926 0.000003 0.000002 -0.000000 1.795791 -2.886944 8.957068 -25.309449 12.012041 15.365530 5.296537 59.676695 2.238907 0.000002 0.000001 0.000002 -57.002775 -14.116558 45.122531 111.803879 -19.382429 0.173281 -41.767293 -7.220921 15.480272 -14.126082 2.704935 -17.735411 0.000000 -0.000000 -0.000001 -63.724538 8.934938 -21.750625 82.895506 43.331649 -9.795583 -23.868166 -9.878217 13.729946 -7.830563 -2.667735 4.921808 -0.000000 0.000001 0.000000 
-11.298211 64.564323 59.585430 19.011818 71.615818 -27.044428 8.177648 -1.132894 4.406714 16.428620 -1.884103 8.808788 16.428616 -1.884095 8.808785 -1.491869 5.506965 -1.031522 -1.491880 5.506961 -1.031513 0.000001 0.000002 -0.000001 3.147855 -0.036791 -21.829368 -16.984536 13.904216 -23.839204 -12.154319 -62.941983 -14.478044 -0.000001 0.000000 -0.000003 1.959237 -2.767989 9.038918 -26.993167 16.050892 12.901012 5.867226 53.771569 2.496169 -0.000003 0.000003 -0.000002 -63.251623 -12.814297 44.307693 109.939183 -25.592432 -0.955878 -36.419986 -6.388519 14.912653 -8.587865 0.546998 -7.767271 0.000001 -0.000001 -0.000001 -60.719794 9.023265 -26.504785 77.930853 40.111976 -8.218643 -23.019990 -9.565721 17.714464 -7.969210 -2.856867 4.884332 -0.000000 -0.000000 0.000000 
-11.961739 65.161652 57.911194 32.524288 76.548710 -40.308652 7.923110 -1.038441 4.341634 15.908554 -1.638741 8.657503 15.908554 -1.638725 8.657492 -1.379579 5.625294 -1.654771 -1.379561 5.625289 -1.654752 0.000003 -0.000001 -0.000000 3.489582 0.174575 -23.467883 -14.761589 16.503448 -22.805493 -11.782350 -58.876647 -13.335308 -0.000002 0.000001 -0.000001 2.147743 -2.667667 9.522192 -28.666738 18.688719 12.310313 6.152498 47.025548 3.192262 0.000004 -0.000000 0.000001 -69.296395 -10.966590 44.001561 108.248280 -27.478367 -1.681136 -29.450399 -4.927328 12.939509 -8.739546 0.343989 -4.364273 -0.000000 -0.000000 -0.000000 -56.785991 8.019996 -31.184151 72.949876 36.666013 -7.072080 -22.206077 -9.458676 22.011661 -8.226449 -3.014249 4.856015 0.000001 0.000000 0.000000 
-12.215384 65.861992 56.252495 60.657073 80.163362 -68.494749 7.498042 -0.927434 4.307850 15.046664 -1.347581 8.580934 15.046685 -1.347578 8.580933 -1.362218 5.633401 -2.340097 -1.362242 5.633395 -2.340082 -0.000002 0.000000 0.000000 3.699987 0.112176 -24.744706 -12.693189 18.489600 -22.773478 -10.503975 -54.721717 -12.028206 -0.000003 -0.000001 0.000001 2.361778 -2.796840 10.596417 -29.502251 19.321120 12.807311 5.775772 42.940768 3.493836 -0.000002 -0.000001 -0.000000 -75.028959 -8.832630 43.402799 107.888548 -24.304064 -0.920074 -25.365781 -3.761595 10.460795 -6.541338 0.076749 -2.598111 0.000001 -0.000001 0.000000 -51.839852 6.353893 -35.593687 67.678808 32.624685 -5.765759 -21.312296 -9.452507 26.516186 -8.478241 -3.160709 4.843615 -0.000000 -0.000000 0.000000 
-12.352463 66.674858 54.701866 99.927450 79.843737 -107.915684 6.982070 -0.838132 4.202026 14.003994 -1.093519 8.363975 14.003995 -1.093525 8.363975 -1.440318 5.545400 -2.973087 -1.440288 5.545399 -2.973087 -0.000000 0.000001 0.000000 3.752445 0.023756 -25.221394 -10.349036 20.430626 -23.516790 -9.305993 -52.458226 -11.415579 0.000000 0.000000 0.000003 2.526007 -3.028391 11.805390 -29.427259 18.095234 14.119345 5.500631 43.669497 3.625743 0.000001 0.000001 -0.000000 -80.079925 -7.011253 42.157365 107.154938 -19.046030 0.641798 -22.454433 -2.797928 8.256094 -4.074765 -0.074515 -0.836221 -0.000001 0.000001 -0.000001 -46.300971 4.281467 -39.129525 62.202021 27.932511 -4.486880 -20.098527 -9.413152 31.082524 -8.618910 -3.327902 4.859314 0.000000 -0.000000 0.000000 
-12.274654 67.598343 53.266880 125.534355 75.927771 -133.883688 6.469729 -0.790217 4.015869 12.970834 -0.912814 7.965103 12.970839 -0.912813 7.965099 -1.532847 5.365225 -3.475210 -1.532874 5.365211 -3.475194 0.000003 -0.000000 -0.000000 3.627912 0.102796 -24.614221 -7.229657 22.632991 -25.126417 -8.286684 -53.142837 -11.623740 -0.000001 0.000001 0.000002 2.531057 -3.136952 12.432147 -28.290237 15.543161 16.389987 5.855461 49.031794 3.802525 -0.000002 -0.000002 -0.000001 -83.615319 -6.049811 40.671331 104.703262 -14.865487 1.748170 -19.333644 -1.787597 6.345066 -3.707776 -0.417233 -0.919912 -0.000001 0.000000 -0.000000 -40.299762 1.727984 -41.513893 56.412424 23.199380 -3.416464 -18.564389 -9.242022 35.275820 -8.565129 -3.503686 4.894422 0.000000 -0.000001 0.000001 
